<svg width="18" height="16" viewBox="0 0 18 16" fill="none" xmlns="http://www.w3.org/2000/svg">
<path fill-rule="evenodd" clip-rule="evenodd" d="M4.4685 5.15846C3.92849 5.15846 3.41538 4.94245 3.00808 4.55623C2.81658 4.37464 2.78975 4.04948 2.94816 3.82996C3.10657 3.61043 3.39023 3.57968 3.58173 3.76127C3.8292 3.99593 4.13998 4.12677 4.4685 4.12677C5.22527 4.12677 5.83675 3.43715 5.84098 2.58809H1.35005C1.10126 2.58809 0.900055 2.8189 0.900055 3.10394V6.72729H15.7774C16.0259 6.72729 16.2274 6.95825 16.2274 7.24314C16.2274 7.52804 16.0259 7.75899 15.7774 7.75899H0.900055V14.4526C0.900055 14.7376 1.10126 14.9684 1.35005 14.9684H16.6501C16.8988 14.9684 17.1001 14.7376 17.1001 14.4526V3.10394C17.1001 2.8189 16.8988 2.58809 16.6501 2.58809H15.6699C15.6657 4.0094 14.6483 5.15846 13.3974 5.15846C12.8568 5.15846 12.3446 4.94268 11.937 4.55623C11.7455 4.37464 11.7187 4.04948 11.8771 3.82996C12.0355 3.61043 12.3192 3.57968 12.5107 3.76127C12.7584 3.99621 13.0684 4.12677 13.3974 4.12677C14.1537 4.12677 14.7657 3.43677 14.7699 2.58809H6.74099C6.73678 4.00971 5.71996 5.15846 4.4685 5.15846ZM16.65 1.55635H15.4843C15.1352 0.640129 14.3315 0 13.3974 0C12.4819 0 11.6661 0.619557 11.3096 1.55635H6.5555C6.20661 0.640018 5.40311 0 4.4685 0C3.55367 0 2.738 0.619719 2.38152 1.55635H1.35C0.604013 1.55635 0 2.24923 0 3.10389V14.4525C0 15.3072 0.604013 16 1.35 16H16.65C17.396 16 18 15.3072 18 14.4525V3.10389C18 2.24923 17.396 1.55635 16.65 1.55635ZM13.3974 1.03169C13.8081 1.03169 14.1761 1.2348 14.4274 1.55635H12.3659C12.6207 1.2306 12.9924 1.03169 13.3974 1.03169ZM5.49877 1.55635C5.24754 1.23476 4.87954 1.03169 4.4685 1.03169C4.06406 1.03169 3.69254 1.23063 3.43786 1.55635H5.49877Z" fill="#1A252F"/>
</svg>
